<?xml version="1.0" standalone="no"?>
<!DOCTYPE svg PUBLIC "-//W3C//DTD SVG 20010904//EN"
 "http://www.w3.org/TR/2001/REC-SVG-20010904/DTD/svg10.dtd">
<svg version="1.0" xmlns="http://www.w3.org/2000/svg"
 width="500.000000pt" height="500.000000pt" viewBox="0 0 500.000000 500.000000"
 preserveAspectRatio="xMidYMid meet">

<g transform="translate(0.000000,500.000000) scale(0.100000,-0.100000)"
fill="#000000" stroke="none">
<path d="M710 2610 l0 -460 415 0 415 0 0 460 0 460 -415 0 -415 0 0 -460z
m580 111 c0 -240 -8 -320 -38 -361 -49 -67 -182 -91 -270 -49 -24 12 -46 27
-48 34 -5 11 33 125 41 125 3 0 19 -9 37 -20 42 -25 59 -25 92 1 l26 20 0 240
0 239 80 0 80 0 0 -229z"/>
<path d="M1814 2923 c-14 -34 -168 -418 -215 -536 l-19 -48 76 3 77 3 20 58
21 58 120 -3 120 -3 20 -57 21 -58 72 0 c40 0 73 3 73 8 0 4 -55 143 -122 310
l-122 302 -63 0 -63 0 -16 -37z m115 -251 l30 -82 -64 0 c-36 0 -65 3 -65 8 0
6 9 30 49 136 7 16 13 27 16 25 2 -3 17 -42 34 -87z"/>
<path d="M2230 2650 l0 -310 70 0 70 0 2 189 3 189 120 -189 120 -189 73 0 72
0 -2 308 -3 307 -67 3 -68 3 0 -193 c0 -161 -2 -190 -13 -178 -8 8 -65 95
-127 193 l-112 177 -69 0 -69 0 0 -310z"/>
<path d="M2850 2650 l0 -310 175 0 175 0 0 60 0 60 -105 0 -105 0 0 65 0 65
100 0 100 0 0 60 0 60 -100 0 -100 0 0 60 0 60 105 0 105 0 0 65 0 65 -175 0
-175 0 0 -310z"/>
<path d="M2597 1920 c-98 -25 -192 -110 -222 -201 -22 -65 -21 -165 1 -232 25
-77 112 -160 189 -182 156 -46 304 17 375 157 26 52 30 72 30 138 0 101 -21
158 -81 224 -75 82 -192 120 -292 96z m149 -149 c71 -43 98 -184 51 -265 -33
-57 -64 -77 -125 -78 -59 0 -103 21 -136 65 -33 44 -35 158 -4 216 14 26 38
51 58 62 45 25 116 24 156 0z"/>
<path d="M1850 1611 l0 -311 70 0 69 0 3 119 3 119 90 -119 90 -118 88 -1 c68
0 86 3 81 13 -5 6 -51 63 -103 126 -62 74 -91 116 -82 119 26 9 84 67 97 99
36 84 1 191 -76 232 -40 22 -59 25 -187 29 l-143 5 0 -312z m250 169 c26 -26
27 -90 2 -113 -10 -9 -40 -20 -65 -23 l-47 -7 0 82 0 81 45 0 c32 0 51 -6 65
-20z"/>
<path d="M3000 1855 l0 -65 70 0 70 0 0 -245 0 -245 75 0 75 0 0 245 0 245 70
0 70 0 0 65 0 65 -215 0 -215 0 0 -65z"/>
<path d="M3487 1913 c-4 -3 -7 -143 -7 -310 l0 -303 70 0 70 0 0 125 0 125
100 0 100 0 0 -125 0 -125 70 0 70 0 0 310 0 310 -70 0 -70 0 0 -125 0 -125
-100 0 -100 0 0 125 0 125 -63 0 c-35 0 -67 -3 -70 -7z"/>
<path d="M4057 1913 c-4 -3 -7 -143 -7 -310 l0 -303 175 0 175 0 0 60 0 60
-105 0 -105 0 0 65 0 65 105 0 105 0 0 60 0 60 -105 0 -105 0 0 60 0 60 105 0
105 0 0 65 0 65 -168 0 c-93 0 -172 -3 -175 -7z"/>
</g>
</svg>
